<?xml version="1.0" encoding="UTF-8" standalone="no"?>
<!-- Created with Inkscape (http://www.inkscape.org/) -->

<svg
   width="120"
   height="120"
   viewBox="0 0 120 120"
   version="1.1"
   id="svg1"
   inkscape:version="1.4 (86a8ad7, 2024-10-11)"
   sodipodi:docname="plume.svg"
   xmlns:inkscape="http://www.inkscape.org/namespaces/inkscape"
   xmlns:sodipodi="http://sodipodi.sourceforge.net/DTD/sodipodi-0.dtd"
   xmlns="http://www.w3.org/2000/svg"
   xmlns:svg="http://www.w3.org/2000/svg">
  <sodipodi:namedview
     id="namedview1"
     pagecolor="#ffffff"
     bordercolor="#000000"
     borderopacity="0.25"
     inkscape:showpageshadow="2"
     inkscape:pageopacity="0.0"
     inkscape:pagecheckerboard="0"
     inkscape:deskcolor="#d1d1d1"
     inkscape:document-units="px"
     inkscape:zoom="2.6916667"
     inkscape:cx="105.32508"
     inkscape:cy="61.30031"
     inkscape:window-width="1536"
     inkscape:window-height="890"
     inkscape:window-x="-6"
     inkscape:window-y="-6"
     inkscape:window-maximized="1"
     inkscape:current-layer="layer1" />
  <defs
     id="defs1" />
  <g
     inkscape:label="Layer 1"
     inkscape:groupmode="layer"
     id="layer1">
    <path
       id="Tree_5_"
       fill="#002f65"
       d="m 112.45851,59.411198 c 0.078,-0.301 0.208,-0.537 0.208,-0.904 0,-0.642 -0.208,-1.362 -0.917,-2.096 -1.834,-1.913 -4.795,-0.065 -6.263,0.872 -0.157,-0.465 -0.367,-0.989 -0.812,-1.389 0.092,-0.23 0.144,-0.505 0.118,-0.832 -0.118,-1.134 -1.284,-1.638 -1.887,-1.907 l -0.104,-0.032 c 1.362,0.104 3.472,0.104 4.061,-1.854 l 0.065,-1.126 c -0.197,-0.117 1.375,0.138 1.375,0.138 1.978,0.452 4.953,1.101 6.027,-0.996 0.17,-0.314 0.222,-0.582 0.222,-0.877 0,-0.727 -0.432,-1.388 -0.746,-1.886 0,0 -0.066,-0.104 -0.158,-0.249 0.877,-0.445 3.171,-1.599 3.171,-3.931 0,-0.563 -0.145,-1.179 -0.459,-1.874 -1.061,-2.338 -3.459,-1.664 -4.743,-1.283 0,0 -0.235,0.059 -0.445,0.092 0,-0.033 0.013,-0.118 0.013,-0.118 0.013,-0.236 0.053,-0.511 0.053,-0.773 0,-0.531 -0.118,-1.141 -0.563,-1.665 -0.301,-0.353 -0.721,-0.641 -1.258,-0.825 0.537,-0.642 0.931,-1.407 0.931,-2.338 0,-0.452 -0.08,-0.95 -0.329,-1.487 -0.261,-0.727 -0.812,-1.284 -1.493,-1.559 -1.572,-0.615 -3.472,0.223 -4.65,0.734 -0.066,-0.203 -0.184,-0.406 -0.302,-0.643 0.105,-0.32 0.209,-0.642 0.209,-0.995 0,-0.708 -0.196,-1.317 -0.393,-1.808 0.799,-0.558 2.083,-1.56 2.332,-2.875 0.053,-0.151 0.066,-0.334 0.066,-0.492 0,-0.589 -0.236,-1.166 -0.643,-1.677 -1.664,-2.017 -4.126,-1.166 -5.306002,-0.786 0,0 -0.091,0.026 -0.17,0.065 -0.354,-0.707 -0.864,-1.526 -2.174,-1.833 -1.559,-0.406 -3.119,0.976 -4.245,1.984 0,0 -0.288,0.229 -0.524,0.414 -0.079,-0.073 -0.158,-0.165 -0.158,-0.165 l -1.716,-1.119 c -1.559,-0.314 -3.276,2.181 -3.668,2.842 -0.039,0.033 -0.065,0.033 -0.065,0.033 -0.262,-0.465 -0.616,-0.779 -0.904,-0.97 0.105,-0.097 0.197,-0.216 0.197,-0.216 0.851,-0.747 2.135,-1.886 2.174,-3.393 0,-0.02 0,-0.053 0,-0.053 0,-0.825 -0.34,-1.546 -1.009,-2.213 -0.891,-0.905 -1.833,-1.363 -2.829,-1.336 -1.775,0.046 -3.165,1.52 -4.088,2.515 0,0 -0.065,0.072 -0.13,0.131 -0.079,-0.288 -0.223,-0.616 -0.387,-0.905 0.072,-0.301 0.145,-0.647 0.145,-0.982 0,-0.394 -0.072,-0.799 -0.204,-1.153 -0.104,-0.249 -0.301,-0.406 -0.452,-0.615 0.996,-0.812 2.299,-2.077 2.299,-3.537 0,-0.368 -0.104,-0.741 -0.314,-1.126 -0.89,-1.6189999 -2.031,-1.9139999 -2.764,-2.0569999 v -0.072 c 0.072,-0.334 0.13,-0.818 0.13,-1.343 0,-1.317 -0.366,-2.908 -2.292,-3.393 -2.293,-0.55 -3.793,1.46 -4.612,2.541 0,0 -0.104,0.145 -0.229,0.269 -0.478,-0.485 -1.342,-1.29 -2.672,-1.134 -0.583,-0.95 -1.474,-1.532 -2.64,-1.684 -2.175,-0.288 -3.04,2.339 -3.59,4.088 0,0 -0.216,0.603 -0.301,0.871 -0.156,-0.026 -0.314,-0.065 -0.314,-0.065 -0.616,-0.184 -1.533,-0.406 -2.489,0.145 -0.892,0.511 -1.193,1.284 -1.193,2.1229999 0,1.375 0.812,3 1.428,4.1 0,0 0.125,0.262 0.243,0.531 -0.989,0.203 -1.801,0.569 -2.286,1.251 -0.249,0.34 -0.399,0.714 -0.472,1.1 -0.118,-0.158 -0.249,-0.262 -0.379,-0.419 0.268,-1.506 0.95,-6.21 -0.138,-7.5329999 -0.308,-0.418 -0.773,-0.615 -1.265,-0.641 -0.208,0 -0.379,0.13 -0.563,0.208 -0.006,-1.742 -0.367,-4.152 -2.181,-4.729 -1.383,-0.407 -2.116,-0.026 -2.575,0.418 -1.101,-1.381 -3.197,-3.877 -5.561,-2.777 -1.101,0.504 -1.441,1.428 -1.441,2.442 0,1.271 0.556,2.654 0.872,3.518 0,0 0.052,0.112 0.078,0.184 -0.838,0.078 -2.109,0.334 -2.503,1.8989999 -0.039,0.249 -0.078,0.465 -0.078,0.675 0,0.072 0.02,0.124 0.02,0.189 -1.323,-0.996 -3.098,-1.6249999 -5.096,-0.249 -0.99,0.695 -1.331,1.639 -1.331,2.607 0,1.585 0.892,3.236 1.376,4.113 -0.747,0.334 -1.867,0.957 -2.043,2.425 -0.013,0.144 -0.013,0.294 -0.013,0.458 0,2.771 3,3.642 4.684,4.153 0,0 0.138,0.039 0.308,0.091 -0.013,0 -0.026,0.026 -0.045,0.046 -0.17,0.255 -1.003,0.74 -1.421,0.74 0,-0.052 -0.577,-0.393 -0.577,-0.393 -1.396,-0.905 -4.33,-2.817 -6.806,-0.138 -0.55,0.623 -0.793,1.251 -0.793,1.867 0,1.323 1.074,2.568 1.678,3.288 0,0 0.51,0.643 0.536,0.655 -0.052,0 -0.261,0.537 -0.261,0.537 l -0.551,1.795 c 0,0.176 0.007,0.301 0.04,0.471 -0.04,0.013 -0.23,0.145 -0.399,0.262 -0.046,-0.354 -0.08,-0.838 -0.08,-0.838 -0.104,-1.625 -0.229,-3.812 -2.03,-4.362 -1.101,-0.334 -1.809,0.321 -2.26,0.831 0,-0.045 -0.013,-0.136 -0.013,-0.136 -0.275,-1.717 -0.721,-4.652 -2.935,-4.704 -1.211,-0.013 -1.795,1.153 -2.254,1.991 0,0 -0.078,0.131 -0.15,0.249 -0.065,-0.104 -0.138,-0.183 -0.138,-0.183 -0.681,-0.853 -1.938,-2.405 -3.734,-1.665 -1.52,0.63 -1.899,1.979 -1.899,3.282 0,0.833 0.171,1.658 0.301,2.247 0,0 0.02,0.223 0.072,0.433 -0.104,0.052 -0.236,0.125 -0.236,0.125 -0.727,0.333 -1.684,0.792 -2.031,1.788 -0.097,0.288 -0.17,0.537 -0.17,0.812 0,1.809 2.194,3.158 3.872,3.996 -0.438,0.288 -0.838,0.615 -1.113,0.917 -1.016,-0.498 -2.148,-0.76 -3.256,-0.334 -1.251,0.485 -1.487,1.599 -1.487,2.477 0,0.125 0,0.229 0,0.354 -1.087,-0.268 -2.9090002,-0.517 -3.9570002,1.664 -0.34,0.715 -0.452,1.291 -0.452,1.821 0,0.609 0.164,1.126 0.36,1.513 0.733,1.389 2.332,2.077 3.5760002,2.464 -0.275,0.379 -0.55,0.733 -0.615,1.231 l 0.615,1.938 c 1.179,1.364 2.882,0.656 4.114,0.145 1.395,-0.558 1.939,-0.669 2.279,-0.223 -0.013,0.158 -0.379,0.734 -0.852,1.258 -0.314,-0.059 -0.623,-0.091 -0.944,-0.039 -1.179,0.209 -1.656,1.042 -1.886,1.703 -1.061,-0.903 -2.764,-2.358 -4.5910002,-1.964 -1.461,0.301 -1.789,1.368 -1.789,2.292 0,0.452 0.092,0.851 0.145,1.114 v 0.065 c -0.091,0 -0.223,-0.02 -0.223,-0.02 -1.048,-0.255 -2.489,-0.569 -3.597,0.177 -0.635,0.394 -0.989,1.074 -1.186,1.926 -0.026,0.261 -0.059,0.484 -0.059,0.694 0,2.463 2.575,3.256 3.931,3.609 -0.334,0.458 -0.714,1.048 -0.714,1.789 0,0.524 0.203,1.101 0.812,1.65 2.175,1.92 4.2520002,0.484 5.2670002,-0.185 l 0.117,-0.078 c 0.013,0.367 0.092,0.708 0.158,0.996 0,0 0.052,0.368 0.085,0.577 -0.177,0.052 -0.413,0.13 -0.413,0.13 -0.858,0.237 -2.0310002,0.584 -2.5820002,1.626 -0.157,0.327 -0.249,0.675 -0.249,1.066 0,0.335 0.065,0.701 0.196,1.108 0.812,2.343 3.2750002,2.232 4.4680002,2.167 0,0 0.17,0 0.333,-0.006 0.046,0.079 0.059,0.183 0.059,0.183 0.052,0.656 0.158,1.626 1.009,2.412 2.162,1.978 5.096,-0.458 6.353,-1.48 l 0.007,-0.014 c 0.256,0.177 0.511,0.361 0.708,0.512 0.177,0.524 0.491,0.968 0.701,1.231 h 0.026 c -0.125,0.118 -0.236,0.223 -0.236,0.223 -0.76,0.713 -2.319,2.175 -2.319,3.923 0,0.617 0.197,1.251 0.636,1.906 1.107,1.598 3.479,0.446 5.384,-0.458 0,0 1.12,-0.498 1.291,-0.564 h -0.02 c 0,0.118 0.046,0.257 0.046,0.257 0.184,0.687 0.603,2.311 2.987,1.827 2.811,-0.564 3.577,-2.699 4.167,-4.265 0.144,-0.452 0.341,-0.845 0.524,-1.193 0.209,0.269 1.048,1.161 1.048,1.161 l 1.205,-0.211 c 1.598,-0.982 2.791,-4.729 3.177,-6.078 3.373,1.572 6.524,6.446 7.042,7.69 0.314,0.799 1.572,2.823 3.433,5.817 1.075,1.755 2.385,3.851 2.66,4.441 -0.721,4.827 -2.941,8.41 -6.301,10.132002 l -1.376,0.695 c -3.118,1.56 -7.821,3.917 -10.022,5.771 -0.216,-0.038 -0.459,-0.079 -0.734,-0.079 -1.854,0 -2.948,0.55 -3.498,0.918 -1.245,-0.617 -2.652,-0.996 -3.825,-1.01 -3.407,-0.012 -4.986,1.65 -5.713,3.034 -1.113,2.134 -0.786,4.894 0.171,6.217 1.284,1.807 3.176,2.745 5.607,2.745 1.742,0 2.771,-0.492 3.354,-0.892 0.643,0.321 1.782,0.793 3.393,0.793 1.913,0 3.013,-0.486 3.643,-0.839 0.956,0.564 2.057,0.938 3.19,0.938 1.566,0 2.522,-0.48 3.079,-0.865 0.635,0.333 1.689,0.767 3.137,0.767 1.736,0 2.784,-0.472 3.4,-0.833 0.962,0.596 2.09,0.932 3.204,0.932 1.585,0 2.541,-0.48 3.078,-0.865 0.643,0.333 1.678,0.767 3.145,0.767 1.689,0 2.764,-0.452 3.354,-0.813 0.969,0.576 2.089,0.912 3.183,0.912 1.598,0 2.542,-0.48 3.118,-0.865 0.616,0.333 1.664,0.767 3.145,0.767 1.684,0 2.764,-0.452 3.353,-0.813 0.977,0.576 2.07,0.912 3.204,0.912 1.578,0 2.535,-0.48 3.085,-0.865 0.636,0.333 1.677,0.767 3.158,0.767 1.899,0 3.026,-0.57 3.55,-0.938 1.245,0.623 2.673,1.028 3.878,1.036 2.699,0.026 4.782,-1.102 5.79,-3.126 1.074002,-2.167 0.695002,-4.873 -0.262,-6.136 -1.375,-1.841 -3.196,-2.733 -5.594,-2.733 -1.742,0 -2.777,0.498 -3.354,0.912 -0.485,-0.275 -1.323,-0.602 -2.463,-0.735 -1.009,-2.05 -2.581,-2.699 -7.926,-4.972 l -0.734,-0.293 c -5.738,-2.398002 -7.029,-4.705002 -8.083,-6.552002 l -0.131,-0.261 c -0.964,-1.65 -2.916,-11.785 1.126,-18.001 2.326,-3.544 5.227,-5.143 6.838,-5.803 0.288,1.743 0.799,4.08 1.664,5.018 l 1.442,0.719 c 0,0 0.379,-0.229 0.753,-0.4 0.15,0.263 0.243,0.524 0.243,0.524 0.707,1.705 1.664,4.076 3.537,4.323 1.533,0.217 2.175,-0.432 2.555,-0.968 0.812,0.826 1.978,1.998 3.406,1.938 1.416,-0.064 2.096,-0.897 2.476,-1.35 0.853,0.283 2.988,1.002 4.298,-0.93 0.34,-0.55 0.497,-1.002 0.497,-1.468 0,-1.138 -1.008,-1.925 -1.506,-2.331 0,0 -0.052,-0.026 -0.078,-0.058 0.275,-0.283 0.746,-0.808 0.785,-1.482 0.538,0 1.062002,-0.117 1.559002,-0.432 0.878,-0.518 0.957,-1.344 1.022,-1.807 0.039,0 0.078,0 0.131,0 0.865,0.11 2.646,0.327 3.367,-1.357 0.158,-0.406 0.249,-0.759 0.262,-1.075 0.76,-0.339 1.141,-0.994 1.323,-1.532 v 0 c 1.141,0.538 2.738,1.245 3.917,0.695 1.284,-0.59 1.415,-2.018 1.493,-2.857 v 0 c 1.009,0.205 2.607,0.518 3.826,-0.354 0.707,-0.478 1.126,-1.225 1.271,-2.239 0.052,-0.223 0.065,-0.42 0.065,-0.631 0.001,-2.988 -3.419,-3.631 -4.846,-3.84 z m -8.176,-2.935 c -0.091,0.328 -0.379,0.59 -0.708,0.622 0.236,-0.15 0.485,-0.34 0.708,-0.622 z m -1.245,-1.225 c 0,-0.013 -0.55,0.472 -0.55,0.472 l -0.786,0.688 -0.301,0.721 c -0.354,1.067 -1.048,3.223 -5.031002,3.957 -0.079,-0.119 -0.157,-0.249 -0.249,-0.368 -0.563,-0.917 -1.192,-1.938 -1.402,-3.366 -0.223,-1.992 0.026,-3.498 0.262,-4.449 3.21,-0.333 5.437002,0.098 6.315002,1.252 0.079,0.091 0.917,0.615 0.917,0.615 0.21,0.078 0.734,0.314 0.825,0.478 z m -18.642002,0.138 0.524,1.271 0.235,0.334 c -1.152,0.871 -2.987,0.393 -4.191,0.072 l -1.553,-0.125 c -0.662,0.307 -0.773,0.976 -0.852,1.421 l -0.104,0.445 c -0.623,0.125 -3.715,-0.563 -4.763,-1.152 0.708,-0.97 1.416,-1.762 2.129,-2.221 0.039,0 0.039,-0.039 0.052,-0.046 0.872,-0.445 1.959,-0.943 2.922,-1.257 2.148,-0.708 5.011,-1.992 4.808,-2.503 -0.203,-0.511 -3.177,0.099 -5.366,0.838 -1.715,0.563 -4.31,1.546 -5.496,2.025 0.675,-2.057 1.815,-4.507 2.752,-4.652 0.327,0.675 0.937,0.766 1.08,0.753 l 1.611,-1.153 c 2.123,-2.057 2.909,-2.345 3.125,-2.214 l 0.236,0.262 0.858,0.838 c 0.616,0.275 1.167,-0.078 1.887,-0.576 0.407,-0.288 1.35,-0.898 1.677,-0.754 0.406,0.137 0.472,0.321 0.616,0.622 l 0.707,0.957 c 0.013,0 1.795,-0.013 1.795,-0.013 0.721,-0.158 2.385,-0.511 2.594,-0.013 0.485,1.179 -0.079,1.625 -1.375,2.279 -0.629,0.334 -1.284,0.655 -1.284,1.416 l 0.288,1.12 0.17,0.728 c -0.118,0.354 -0.394,0.51 -0.826,0.589 -0.13,-0.013 -0.301,0 -0.432,0.079 -0.485,0.039 -1.101,0 -1.834,-0.125 l -1.625,0.125 c -0.301,0.013 -0.334,-0.125 -0.472,0.125 -0.168,0.229 0.002,0.229 0.107,0.505 z m -11.896,11.241 c -0.786,0.877 -1.559,1.755 -2.213,2.594 0.032,-0.275 0.045,-0.486 0.065,-0.767 0.091,-1.972 0.184,-4.225 0.885,-6.033 0.452,-1.264 0.989,-2.319 1.559,-3.334 0.556,0.333 1.342,0.635 2.175,0.872 -0.06,0.536 -0.282,0.681 -0.773,0.89 l -1.585,1.16 c -1.141,1.447 -0.86,3.425 -0.113,4.618 z m -3.76,-15.198 c 0.157,-0.838 0.367,-1.703 0.668,-2.646 0.433,-1.541 3.57,-6.917 2.81,-7.206 -0.753,-0.295 -3.727,4.939 -4.251,6.695 -0.13,0.524 -0.301,1.028 -0.452,1.526 -0.662,-1.31 -1.264,-2.974 -1.264,-4.225 0,-0.518 0.104,-0.99 0.393,-1.31 0.236,-0.262 0.399,-0.262 0.682,-0.275 l 0.707,-0.15 c 0.368,-0.178 0.459,-0.439 0.459,-0.76 0,-0.347 -0.13,-0.741 -0.314,-1.107 -0.301,-0.786 -0.891,-2.221 -0.891,-3.433 0,-0.353 0.039,-0.688 0.183,-0.996 0.197,-0.432 0.563,-0.746 1.126,-0.943 0,0.026 0.315,0.197 0.315,0.197 0.608,0.445 1.14,0.445 1.506,0.065 0.026,-0.02 0.374,-1.107 0.374,-1.107 0.111,-0.826 0.478,-3.379 1.578,-3.379 l 0.427,0.189 c 0.216,0.118 0.662,0.38 1.171,0.131 l 0.44,-0.341 c 1.814,-1.598 2.286,-1.48 2.364,-1.454 0.309,0.17 0.38,1.257 0.4,1.781 0.072,0.799 0.125,1.455 0.688,1.802 l 1.258,0.288 0.615,0.085 c 0.662,1.565 -0.589,2.843 -1.939,3.877 -0.327,0.289 -0.773,0.616 -0.622,1.205 0,-0.012 0.753,0.799 0.753,0.799 l 0.531,0.354 c 0.189,0.773 -2.13,2.057 -2.909,2.483 l -1.277,1.106 c -0.229,0.184 -0.38,0.105 -0.328,0.394 0.033,0.301 0.197,0.183 0.459,0.327 l 1.022,0.511 0.354,0.091 c 0.438,1.896 -4.757,4.555 -7.036,5.426 z m 3.039,0.538 c -0.563,1.395 -0.937,2.79 -1.093,3.418 -0.368,0.184 -0.754,0.367 -1.082,0.537 0,0 -0.249,0.119 -0.511,0.249 0,-0.052 -0.026,-0.164 -0.026,-0.164 -0.039,-1.16 -0.144,-2.05 -0.288,-2.725 0.629,-0.228 1.756,-0.687 3,-1.315 z m -4.886,-0.827 c 0.059,-0.071 0.117,-0.144 0.197,-0.183 0.039,-0.039 0.078,-0.039 0.098,-0.053 -0.02,0.145 -0.059,0.289 -0.098,0.42 -0.08,-0.039 -0.119,-0.143 -0.197,-0.184 z m 0.983,2.451 h 0.006 c -0.045,0.104 -0.045,0.177 -0.091,0.177 0.046,-0.072 0.058,-0.137 0.085,-0.177 z m -1.802,-2.751 c -0.432,-0.026 -0.857,0.053 -1.166,0.111 h -0.019 c -0.191,-1.323 -0.806,-4.035 -2.031,-5.037 -1.14,-0.957 -2.535,-0.052 -3.347,0.498 -0.721,-1.527 -2.247,-3.695 -3.917,-4.088 -0.072,-0.091 -0.19,-0.196 -0.268,-0.248 -0.708,-0.59 -1.429,-1.297 -1.271,-2.438 0.052,-0.498 0.615,-0.773 1.166,-0.995 0.904,-0.419 0.864,-1.101 0.793,-2.07 -0.197,-2.089 -0.072,-3.458 1.081,-3.728 1.435,-0.333 2.672,1.127 3.813,2.653 l 1.303,1.258 c 0.779,0.208 1.303,-0.394 1.697,-0.866 0.511,-0.622 0.667,-0.674 0.786,-0.602 0.733,0.34 1.022,1.258 1.126,1.676 -0.21,0.524 -0.288,1.035 -0.288,1.585 0,1.403 0.511,2.831 0.93,3.793 -0.347,0.125 -0.753,0.321 -1.153,0.753 -0.576,0.688 -0.825,1.546 -0.825,2.477 -0.002,1.861 0.929,3.971 1.59,5.268 z m -2.273,10.854 c 0.315,1.401 0.419,2.811 0.419,3.943 0,0.44 -0.013,0.819 -0.033,1.153 -0.059,1.068 -0.675,3.584 -1.16,5.261 -0.131,-0.211 -2.842,-4.757 -2.842,-4.757 -1.383,-2.317 -1.749,-4.421 -1.821,-5.993 0.046,0 0.059,0.026 0.117,0.026 2.254,0.924 3.171,0.734 4.9,0.439 z m 1.088,-3.911 c -0.354,-0.262 -0.799,-0.642 -1.193,-1.179 -0.184,-0.236 -1.048,-1.225 -2.214,-2.115 -2.018,-1.507 -4.717,-3.033 -4.979,-2.549 -0.249,0.472 2.174,2.109 3.871,3.629 1.179,1.035 1.998,2.325 2.45,3.282 0.06,0.085 0.099,0.184 0.132,0.294 0.137,0.262 0.236,0.564 0.346,0.872 l -0.216,0.013 c -1.63,0.269 -2.181,0.386 -3.983,-0.334 l -0.694,-0.432 c 0.079,-0.217 0.085,-1.258 0.085,-1.258 0.013,-0.249 0.104,-0.334 -0.085,-0.498 -0.229,-0.17 -0.269,-0.079 -0.531,0 l -1.625,0.34 c -0.877,0.367 -2.319,0.983 -3.119,0.643 -0.091,-0.052 -0.405,-0.197 -0.608,-0.819 -0.466,-1.316 -0.052,-1.716 0.367,-2.136 0.242,-0.236 0.662,-0.654 0.57,-1.244 -0.125,-0.799 -0.918,-0.95 -1.809,-1.101 -1.65,-0.295 -2.626,-0.623 -2.626,-1.421 0,-0.472 0.674,-1.199 1.172,-1.546 0.17,-0.13 0.32,-0.347 0.359,-0.583 0.026,-0.222 -0.013,-0.458 -0.177,-0.662 -0.039,-0.065 -1.427,-2.03 -0.085,-3.046 1.278,-0.943 2.031,-0.209 2.234,0.053 0.249,0.242 0.655,0.367 1.009,0.242 0.321,-0.104 0.563,-0.433 0.57,-0.812 0,-0.039 0.019,-1.225 0.852,-1.415 0.76,-0.171 2.672,2.056 3.275,3.773 0.072,0.275 0.334,0.55 0.589,0.628 0.57,0.197 1.002,-0.091 1.572,-0.472 0.288,-0.196 1.087,-0.746 1.323,-0.655 0.753,0.623 1.468,3.492 1.468,4.323 0,0.262 0.203,0.727 0.386,0.892 0.471,0.393 1.081,0.275 1.638,0.183 l 0.74,-0.078 c -0.004,0.223 -0.187,1.926 -1.064,5.188 z m -14.11,0.17 c -0.007,0.02 -0.033,0.052 -0.033,0.065 l -0.026,0.597 c -0.098,1.107 -1.723,2.429 -2.47,2.921 -0.36,-0.334 -0.727,-0.55 -1.074,-0.714 -0.13,-0.485 -0.688,-2.319 -1.048,-4.488 -0.635,-4.009 -0.858,-5.476 -1.329,-5.306 -0.505,0.165 -0.78,1.448 -0.301,5.306 0.098,0.911 0.229,1.723 0.406,2.431 -0.118,-0.13 -0.255,-0.249 -0.406,-0.34 l -1.317,-0.158 c -0.117,0.026 -0.156,0.131 -0.262,0.171 -0.301,-1.795 -1.067,-3.354 -1.952,-4.219 0,-0.104 -0.02,-0.243 -0.072,-0.354 -0.117,-0.262 -0.111,-0.885 -0.046,-1.048 0.118,-0.059 1.141,-1.389 1.141,-1.389 0.137,-0.603 -0.262,-1.008 -0.773,-1.48 -0.799,-0.812 -1.507,-1.625 -1.264,-2.444 0.058,-0.125 0.164,-0.19 0.53,-0.347 l 0.773,-0.406 c 0.433,-0.34 0.406,-0.891 0.353,-1.611 -0.085,-1.559 -0.052,-3.145 1.429,-3.799 l 0.39,0.014 c 0.734,0.314 1.56,1.893 1.913,2.889 0.08,0.157 0.151,0.288 0.275,0.373 0.479,0.439 1.022,0.171 1.429,0 0.772,-0.327 1.407,-0.485 2.017,0.079 -0.812,0.695 -1.126,1.52 -1.126,2.372 0,0.851 0.295,1.592 0.642,2.233 -0.563,0.537 -1.322,1.428 -1.322,2.47 0,2.345 2.45,2.862 3.917,3.111 -0.301,0.452 -0.609,0.97 -0.609,1.801 -0.002,0.38 0.07,0.793 0.215,1.27 z m -0.957,6.198 c 0.078,0.038 0.184,0.052 0.184,0.052 1.742,0.51 5.397,1.584 6.609,8.436 0.524,3.028 0.695,5.044 0.695,6.341 0,0.905 -0.066,1.416 -0.138,1.769 -1.782,-1.317 -6.649,-5.719 -6.649,-11.183 0,-0.078 0.026,-0.675 0.026,-0.883 0,-1.978 -0.32,-3.367 -0.727,-4.532 z m -10.763,-10.56 c -0.374,0.138 -0.623,0.537 -0.885,0.898 -0.615,-1.337 -1.552,-2.425 -3.065,-2.785 -1.074,-0.235 -1.619,0.708 -1.946,1.416 -0.884,-0.643 -2.286,-1.507 -3.721,-1.193 -0.288,0.06 -0.517,0.197 -0.779,0.341 -1.336,-0.511 -2.489,-0.544 -3.433,-0.315 -0.026,-0.249 -0.065,-0.445 -0.104,-0.628 -0.014,-0.039 -0.931,-1.048 -0.931,-1.048 -0.903,-0.57 -1.624,-1.14 -1.415,-2.102 0.177,-0.741 0.799,-1.042 1.645,-1.225 v 0 c 0.255,0.065 0.504,0 0.714,-0.158 l 1.506,-0.667 0.301,-0.78 c 0.138,-0.583 0.249,-0.831 0.472,-0.911 0.55,1.055 1.369,2.024 2.509,2.699 0.164,1.297 0.897,2.267 2.07,2.778 2.004,0.877 4.972,0.327 6.622,-0.433 0.426,0.734 0.957,1.311 1.375,1.717 0,0 0.013,0.019 0.013,0.04 -0.078,0.078 -0.615,0.589 -0.615,0.589 -0.262,0.314 -0.34,0.858 -0.34,1.427 0.001,0.111 0.001,0.209 0.007,0.34 z m -17.496,4.755 -0.268,-0.937 c -0.007,-0.058 -0.138,-0.294 -0.164,-0.346 -0.243,-0.485 -0.413,-0.937 -0.119,-1.37 0.301,-0.504 0.812,-0.518 1.402,-0.518 l 0.674,-0.091 0.57,-0.366 c 0.695,-0.563 1.887,-1.521 3.812,-0.989 -0.196,0.439 -0.314,0.871 -0.314,1.264 0,1.035 0.55,1.834 1.126,2.423 l -3.288,5.456 c -0.714,-0.425 -2.044,-1.316 -2.646,-2.469 z m 10.553,-13.238 c -0.649,0.662 -0.95,0.708 -1.028,0.708 -0.026,-0.021 -0.033,-0.033 -0.065,-0.04 -2.018,-1.107 -2.739,-3.393 -2.739,-5.221 0,-0.026 0,-0.072 0,-0.092 l -0.235,-1.113 c 0,0 -0.079,-0.196 -0.079,-0.288 0.039,0.118 0.406,0.078 0.406,0.078 l 0.786,-0.045 0.72,-0.151 c 1.068,-0.236 2.974,-0.609 5.483,0.223 -0.124,1.08 -1.631,4.31 -3.249,5.941 z m 14.66,-2.031 c 0.007,0 0.007,0 0.007,0 0.223,0.125 0.144,0.367 0.223,0.583 -0.027,-0.078 -0.093,-0.301 -0.23,-0.583 z m -2.116,-15.492 c -0.052,-0.281 -0.164,-1.062 -0.066,-1.27 0.367,-0.145 1.068,0.471 1.33,0.707 0.125,0.092 0.131,0.197 0.282,0.216 l 0.969,0.256 c 0.996,0.052 2.961,0.17 4.494,3.085 -1.1,0.334 -2.633,0.937 -4.068,1.736 -1.199,0.695 -2.168,1.362 -2.941,1.907 -1.441,-2.739 -0.616,-4.232 -0.197,-4.958 l 0.262,-0.669 z m 0.138,9.447 c 0,-0.066 -0.039,-0.072 -0.046,-0.092 z m 24.06,-11.726 c 0.039,-0.026 0.577,-0.328 0.577,-0.328 0.354,-0.235 0.943,-0.603 1.323,-0.471 0.484,0.156 0.576,0.432 0.707,0.917 l 0.15,0.472 c 0.36,0.707 1.094,2.305 0.753,4.684 -0.026,-0.033 -0.052,-0.059 -0.104,-0.085 -0.695,-0.334 -4.487,-1.565 -7.336,-1.742 0.838,-2.117 2.974,-3.107 3.93,-3.447 z m -4.939,1.572 c -0.013,0.026 -0.026,0.026 -0.026,0.052 l -0.15,-0.17 c 0.031,0.026 0.103,0.091 0.176,0.118 z m 17.391,7.507 c 0.734,-0.446 1.73,-1.271 2.09,-2.332 0.091,-0.295 0.131,-0.57 0.131,-0.838 0,-0.589 -0.197,-1.009 -0.432,-1.35 0.465,-0.23 0.838,-0.419 1.231,-0.655 0.459,0.354 0.983,1.336 1.167,1.704 0.13,0.223 0.917,0.877 0.917,0.877 0.695,0.197 1.362,-0.223 2.148,-0.668 1.323,-0.759 2.293,-1.251 3.145,-0.577 0.799,0.604 0.864,1.126 0.825,1.402 -1.258,0.734 -2.123,2.274 -2.463,2.955 -1.69,-0.216 -3.315,0.111 -4.808,0.989 -0.812,-0.229 -3.217,0.498 -4.48,2.588 -0.328,0.543 -0.563,1.27 -0.721,2.063 -0.13,-0.158 -0.458,-0.492 -0.773,-0.799 1.494,-1.31 2.306,-2.621 2.306,-3.99 -10e-4,-0.465 -0.099,-0.897 -0.283,-1.369 z m 11.575,2.777 -0.222,0.799 0.012,0.518 c 0.027,0.222 0.053,0.504 0.053,0.844 0,1.154 -0.301,2.883 -2.031,4.336 -1.585,-0.622 -2.987,-1.428 -3.877,-2.738 l -0.643,-1.435 c -0.157,-0.603 -0.249,-1.231 -0.223,-1.998 2.345,-1.415 4.442,-0.852 5.149,-0.648 0.118,0.046 0.118,0.079 0.249,0.079 l 1.218,-0.269 c 0,0 0.563,-0.157 0.617,-0.184 -0.105,0.028 -0.302,0.696 -0.302,0.696 z m -8.693,-0.262 c 0,-0.091 0.007,-0.144 0.026,-0.249 -0.019,0.106 -0.019,0.158 -0.026,0.249 z m -1.918,2.542 c 0,-0.027 0,-0.033 0,-0.059 0.379,-0.603 0.825,-0.983 1.257,-1.225 z m 0.51,5.463 c -0.079,-0.118 -0.222,-0.21 -0.275,-0.321 -0.393,-0.649 -0.576,-1.369 -0.681,-2.089 z m -5.266,0.819 c -0.092,-0.479 -0.367,-0.662 -0.609,-0.897 1.121,-0.616 2.522,-1.526 3.072,-2.699 0.078,1.14 0.379,2.305 1.002,3.34 -1.381,0.19 -2.862,1.572 -4.022,2.699 0,0 -0.052,0.065 -0.13,0.105 0.026,-0.04 0.104,-0.105 0.157,-0.191 0.399,-0.621 0.602,-1.218 0.602,-1.801 -10e-4,-0.183 -0.033,-0.379 -0.072,-0.556 z m 13.272,6.518 c 0.065,0.169 0.104,0.235 0.104,0.261 v 0 c -0.039,-0.092 -0.104,-0.261 -0.104,-0.261 z m 0.143,0.393 c 0,0 -0.013,-0.078 -0.04,-0.131 0.104,-0.04 0.21,-0.104 0.21,-0.104 l 0.026,-0.013 -0.184,0.413 c -0.012,-0.113 -0.012,-0.165 -0.012,-0.165 z m 18.486002,-13.691 0.118,1.441 c 0.419,1.1 1.664,0.747 2.58,0.478 1.546,-0.438 2.254,-0.491 2.634,0.321 0.799,1.723 -0.065,2.582 -1.899,3.524 l -1.035,0.812 c -0.301,0.747 0.17,1.429 0.524,1.966 0.184,0.301 0.511,0.825 0.433,0.982 -0.446,0.878 -2.62,0.419 -4.088,0.105 -1.375,-0.327 -2.253,-0.511 -2.842,-0.026 -0.76,0.589 -0.695,1.303 -0.682,1.729 l -0.013,0.492 c -0.184,0.661 -1.153,0.701 -2.634,0.53 -0.693,-0.085 -1.323,-0.117 -1.689,0.379 -1.389002,-0.595 -3.288002,-0.773 -5.725002,-0.537 -0.053,-0.111 -0.092,-0.242 -0.21,-0.327 -0.301,-0.301 -0.825,-0.478 -1.442,-0.589 0.105,-0.275 0.171,-0.583 0.171,-0.924 0,-0.117 -0.026,-0.281 -0.026,-0.438 2.319,0.117 7.153002,0.275 8.358002,-2.555 0.092,-0.262 0.158,-0.55 0.158,-0.818 0,-0.603 -0.236,-1.146 -0.524,-1.65 2.424,0.019 6.223,-0.085 6.394,-2.594 0,-0.105 0,-0.203 0,-0.321 0,-1.507 -0.838,-2.221 -1.546,-2.621 0.197,-0.169 0.446,-0.34 0.643,-0.452 0.209,-0.164 0.445,-0.308 0.694,-0.485 1.074,0.098 1.455,0.374 1.572,0.485 0.194,0.202 0.155,0.549 0.076,1.093 z m -4.991,-6.014 c 0.733,-0.34 2.502,-1.14 3.446,-0.773 0.17,0.053 0.379,0.196 0.562,0.577 0.472,1.205 -0.131,2.024 -1.27,2.895 -0.132,0.053 -0.275,0.15 -0.368,0.262 -0.222,0.145 -0.458,0.315 -0.681,0.498 -0.917,0.576 -1.716,1.126 -1.992,1.868 -0.131,0.359 -0.275,0.465 0.04,0.714 l 0.877,0.609 c 0.734,0.255 1.258,0.53 1.166,1.532 -0.039,0.387 -0.721,1.016 -5.162,0.97 -1.074002,0 -1.585002,-0.006 -1.808002,0.583 -0.21,0.537 0.065,0.917 0.394,1.363 0.262,0.373 0.864002,1.218 0.694002,1.598 -0.747002,1.795 -5.397002,1.546 -6.943002,1.467 h -0.642 c -0.314,-0.268 -0.721,-0.426 -1.193,-0.498 0.262,-0.576 0.433,-1.152 0.38,-1.703 0.655,-0.576 1.166,-1.218 1.519,-1.814 h 0.053 c 0.118,-0.137 0.746,-0.505 1.323,-0.871 2.633,-1.599 5.292002,-4.585 4.782,-4.821 -0.446,-0.229 -3.525,1.965 -5.228,3.013 0.144,-0.884 0.104,-1.664 0.052,-2.076 -0.026,-0.189 0.118,-0.531 0.118,-0.531 0.223,-0.603 0.643,-1.729 -0.209,-2.606 -0.747,-0.76 -1.69,-0.446 -2.267,-0.197 0.433,-0.708 1.048,-1.481 1.651,-1.65 0.616,-0.158 0.996,0.111 1.585,0.576 l 1.141,0.667 c 0.838,0.236 1.415,-0.484 2.109,-1.31 1.021,-1.244 1.952002,-2.259 3.157002,-2.056 0.328,0.052 0.458,0.34 0.655,0.943 0.118,0.38 0.301,0.962 0.969,1.055 z m -4.888002,-10.874 c -0.104,0.041 -0.197,0.054 -0.197,0.054 0.171,-0.014 0.171,-0.054 0.197,-0.054 z m -6.917,0.63 c -0.039,0.026 -0.117,0.111 -0.117,0.111 0.091,-0.098 0.117,-0.111 0.117,-0.111 z m -5.162,3.144 0.446,-0.053 0.773,-0.746 c 0.222,-0.446 1.454,-1.868 1.925,-1.979 0,0.066 0.694,0.617 0.694,0.617 l 1.35,0.838 1.756,-1.016 c 0.695,-0.608 2.005,-1.762 2.659,-1.611 0.708,0.176 0.904,0.564 1.101,1.003 l 0.838,0.93 1.389002,-0.158 c 1.323,-0.471 2.555,-0.772 3.393,0.223 0.249,0.309 0.249,0.537 0.223,0.701 -0.171,0.819 -1.52,1.763 -2.135,2.096 -0.21,0.111 -0.367,0.308 -0.433,0.511 -0.078,0.216 -0.065,0.465 0.066,0.701 0.222,0.419 0.445,1.074 0.484,1.618 -2.292002,-0.399 -3.864002,1.507 -4.808002,2.653 0,0 -0.301,0.328 -0.497,0.563 -0.131,-0.118 -0.289,-0.209 -0.289,-0.209 -0.51,-0.38 -1.179,-0.878 -2.095,-0.957 -0.066,-0.589 -0.354,-1.277 -1.035,-1.965 0.354,-0.262 0.799,-0.557 1.297,-0.838 1.532,-0.917 3.209,-2.057 2.948,-2.372 -0.262,-0.334 -2.215,0.406 -3.892,1.114 -0.773,0.353 -1.454,0.812 -1.834,1.126 -1.572,-0.472 -3.104,0.394 -4.113,0.97 0,0 -0.446,0.249 -0.708,0.366 -0.275,-0.602 -0.681,-1.205 -1.14,-1.756 0.956,-0.758 1.533,-1.564 1.637,-2.37 z m -1.572,-2.319 c 0,0 0.091,-0.091 0.158,-0.132 0,0 0.013,0.007 0.013,0.027 0,0.001 -0.066,0.001 -0.171,0.105 z m -5.529,-2.673 1.599,-1.139 c 0.734,-0.76 1.782,-1.914 2.817,-1.94 0.511,0 1.022,0.262 1.546,0.813 0.366,0.327 0.498,0.667 0.498,0.981 -0.026,0.747 -0.957,1.599 -1.56,2.136 l -1.061,1.526 c 0,0.714 0.537,1.082 0.877,1.331 0.446,0.301 0.668,0.472 0.615,1.1 -0.026,0.4 -0.471,1.028 -1.604,1.743 -0.085,0.052 -0.223,0.104 -0.314,0.208 -0.531,0.328 -1.212,0.675 -2.031,1.035 -0.255,0.132 -0.597,0.459 -0.649,0.695 -0.15,0.511 0.105,0.871 0.328,1.134 0.275,0.385 0.438,0.634 0.302,1.041 -0.229,0.701 -1.231,1.323 -1.737,1.611 -0.255,-0.059 -0.517,-0.091 -0.74,-0.104 0,0 -0.13,-0.014 -0.262,-0.04 -0.026,-0.203 -0.052,-0.445 -0.052,-0.445 -0.078,-1.074 -0.184,-2.555 -1.343,-3.178 -0.51,-0.281 -1.093,-0.242 -1.644,-0.084 0.367,-0.466 0.799,-0.983 1.232,-1.501 1.375,-1.532 2.934,-3.019 2.62,-3.399 -0.393,-0.485 -2.344,0.819 -3.957,2.397 -0.647,0.629 -1.205,1.323 -1.65,1.906 -0.078,-1.172 -0.379,-2.286 -0.911,-3.386 -0.058,-0.105 -0.111,-0.302 -0.111,-0.302 -0.084,-0.314 -0.249,-0.832 -0.655,-1.309 0.55,-0.59 1.062,-0.485 1.546,-0.341 l 0.511,0.079 c 0.746,0 0.976,-0.609 1.27,-1.507 0.374,-1.022 1.068,-2.928 2.189,-3.354 l 0.445,-0.078 c 0.17,0.078 0.354,0.602 0.458,0.904 0.21,0.564 0.498,1.467 1.428,1.467 z m -9.707,-13.2899999 1.061,0.694 c 0.747,0.177 1.219,-0.458 1.77,-1.173 0.89,-1.205 1.709,-2.142 2.784,-1.866 0.976,0.236 1.054,1.16 0.844,2.81 -0.085,0.667 -0.13,1.205 0.301,1.585 l 0.892,0.327 c 0.524,0.091 1.199,0.2229999 1.781,1.2449999 0.446,0.825 -1.402,2.476 -2.469,3.157 -0.334,0.203 -0.466,0.589 -0.4,0.969 0.111,0.381 0.445,0.63 0.812,0.649 0.249,0.02 0.301,0.105 0.354,0.197 0.098,0.189 0.13,0.491 0.13,0.74 l -1.126,0.013 c -1.887,0.708 -2.712,3.04 -3.21,4.429 0,0 -0.039,0.13 -0.071,0.229 -0.472,-0.098 -1.187,-0.177 -1.919,0.151 0.472,-0.969 0.877,-2.096 0.877,-2.974 0,-0.281 -0.026,-0.537 -0.13,-0.76 -0.341,-0.885 -1.088,-1.205 -1.743,-1.316 0.727,-0.976 1.651,-2.325 1.651,-4.074 0,-0.884 -0.249,-1.841 -0.898,-2.8229999 -0.569,-0.865 -1.407,-0.852 -2.076,-0.668 0.026,-0.262 0.131,-0.439 0.131,-0.76 0,-0.438 -0.066,-0.917 -0.157,-1.368 0.26,0.108 0.509,0.304 0.811,0.587 z m -0.93,2.4679999 c 0,0.026 0.039,0.059 0.039,0.059 0,0.21 -0.052,0.413 -0.145,0.589 0.079,-0.176 0.079,-0.451 0.106,-0.648 z m -10.259,7.508 c 0.381,-0.531 1.271,-0.682 1.92,-0.695 0.281,-0.02 0.688,-0.262 0.851,-0.498 0.348,-0.628 0,-1.258 -0.609,-2.423 -0.654,-1.258 -1.781,-3.394 -0.891,-3.892 0.282,-0.1769999 0.623,-0.091 1.146,0.026 l 1.723,-0.026 c 0.485,-0.2879999 0.681,-0.8959999 1.028,-1.9319999 0.334,-1.042 0.95,-2.968 1.684,-2.876 0.635,0.085 1.093,0.394 1.427,0.917 0.695,1.186 0.511,3.151 0.223,3.8909999 -0.118,0.354 -0.052,0.866 0.223,1.088 0.537,0.458 1.095,0.144 1.396,-0.04 0.189,-0.092 0.727,-0.367 0.883,-0.34 1.336,2.018 0.158,3.93 -1.166,5.529 -0.407,0.498 -0.747,0.917 -0.498,1.48 0.327,0.576 0.917,0.576 1.362,0.576 0.668,0 1.022,0.053 1.141,0.315 0.144,0.458 -0.623,2.515 -1.789,4.336 -0.426,0.17 -0.779,0.379 -1.028,0.55 -0.864,0.354 -2.188,0.97 -3.341,2.005 0.334,-1.245 0.97,-3.996 1.219,-6.302 0.275,-2.372 0.295,-4.252 -0.394,-4.206 -0.328,0.039 -0.616,2.254 -1.14,4.611 -0.511,2.345 -1.166,4.834 -1.369,5.516 -0.204,-0.019 -0.38,-0.019 -0.57,-0.033 0,0 -0.478,-0.032 -0.799,-0.071 v -0.013 c 0.353,-0.734 1.022,-2.122 1.022,-3.59 0,-1.199 -0.472,-2.423 -1.874,-3.393 -0.773,-0.524 -1.442,-0.341 -1.979,-0.026 0.03,-0.163 0.108,-0.347 0.199,-0.484 z m -2.45,2.227 1.126,0.996 c 0.616,0.144 1.048,-0.301 1.396,-0.695 l 0.714,-0.589 c 1.611,1.087 1.297,2.646 0.262,4.795 l -0.354,1.297 c 0.236,1.283 1.723,1.296 2.699,1.311 l 1.022,0.097 c -0.367,0.531 -0.648,1.206 -0.825,1.907 -0.721,0.145 -1.33,0.485 -1.762,1.022 -0.597,0.707 -0.76,1.625 -0.767,2.522 -0.655,-0.623 -1.441,-1.074 -2.352,-1.264 -0.164,-0.537 -0.413,-1.376 -0.643,-2.345 -0.491,-2.168 -1.028,-4.69 -1.617,-4.546 -0.34,0.098 -0.308,2.502 0,4.631 0.158,0.91 0.34,1.723 0.498,2.364 -0.531,0.17 -0.957,0.446 -1.278,0.773 -0.19,-0.505 -0.413,-0.957 -0.701,-1.271 -0.327,-0.34 -0.668,-0.498 -0.969,-0.53 -0.262,-0.57 -0.563,-1.056 -0.853,-1.507 0.427,-0.34 0.524,-0.635 0.524,-0.779 0.092,-0.446 -0.157,-0.734 -0.72,-1.416 -1.429,-1.65 -2.044,-2.686 -1.847,-3.137 0.21,-0.426 0.32,-0.4 0.838,-0.334 0.419,0.079 0.989,0.158 1.468,-0.301 0.393,-0.413 0.34,-0.996 0.248,-1.964 -0.157,-1.533 -0.229,-3.165 0.655,-3.407 1.22,-0.316 2.538,1.44 3.238,2.37 z m -5.633,1.84 c 0,0 0,0 0.026,0 0,0.099 0,0.243 0,0.243 0,-0.157 -0.026,-0.203 -0.026,-0.243 z m -6.826,-12.9429999 c 0.04,0.099 0.105,0.255 0.105,0.255 -0.065,-0.157 -0.105,-0.203 -0.105,-0.255 z m -0.937,1.9459999 c 0.111,-0.419 0.341,-0.518 1.239,-0.59 0.484,-0.039 1.047,-0.078 1.375,-0.5889999 0.328,-0.485 0.144,-0.996 -0.236,-1.958 -0.459,-1.146 -1.297,-3.288 -0.34,-3.714 1.199,-0.583 2.862,1.552 3.602,2.463 l 0.878,0.864 c 0.301,0.105 0.891,0.171 1.375,-0.654 0.158,-0.314 0.27,-0.459 1.016,-0.236 0.857,0.262 1.067,2.797 0.872,4.5199999 -0.027,0.393 0.157,0.747 0.523,0.897 0.341,0.157 0.773,0.072 1.022,-0.223 0.256,-0.282 0.656,-0.609 0.812,-0.609 0.288,0.563 0.145,3.315 -0.157,5.214 -0.675,-0.36 -1.435,-0.524 -2.286,-0.301 -0.55,0.144 -0.923,0.465 -1.238,0.825 -0.957,-0.498 -1.73,-0.433 -2.345,-0.203 -0.08,-1.933 -0.42,-5.3 -3.053,-5.679 -1.231,-0.197 -2.017,0.707 -2.515,1.506 -0.36,-0.407 -0.661,-0.99 -0.544,-1.533 z m -7.126,9.523 c 0.099,-0.563 0.603,-0.858 1.303,-1.113 0.406,-0.177 0.852,-0.354 0.983,-0.877 l -0.38,-1.363 c -0.996,-1.769 -1.795,-3.694 -0.603,-4.52 1.559,-1.107 2.856,-0.204 4.598,1.709 0.583,0.642 0.97,1.028 1.533,0.989 0.701,-0.046 1.035,-0.669 1.415,-1.323 0.275,-0.498 0.715,-1.323 1.062,-1.284 1.46,0.243 1.546,3.406 1.611,4.585 0.013,0.838 0.039,1.35 0.616,1.566 0.504,0.19 0.891,-0.085 1.126,-0.269 0.432,-0.275 0.852,-0.524 1.599,-0.104 -0.066,0.399 -0.085,0.786 -0.085,1.166 0,0.616 0.065,1.219 0.085,1.664 0,0 0.026,0.197 0.026,0.354 -0.793,-0.079 -1.788,0.026 -2.411,1.375 -0.15,0.288 -0.177,0.576 -0.177,0.884 0,0.95 0.577,1.959 1.251,2.823 -0.602,-0.308 -1.206,-0.458 -1.689,-0.537 -0.21,-0.668 -0.643,-1.925 -1.481,-3.367 -0.667,-1.152 -2.83,-3.576 -3.374,-2.968 -0.563,0.609 1.054,2.588 1.625,3.479 0.459,0.708 0.792,1.402 1.054,1.991 -0.654,-0.354 -1.454,-0.615 -2.292,-0.235 -1.31,0.537 -1.14,2.017 -0.996,2.935 -2.194,-0.321 -2.554,-0.623 -2.554,-0.773 0,-0.23 0.249,-0.466 0.628,-0.833 l 1.062,-1.625 c 0.039,-0.976 -0.95,-1.264 -2.109,-1.618 -1.952,-0.562 -3.576,-1.165 -3.426,-2.711 z m -4.311,5.955 c 1.331,-1.435 2.863,-0.648 4.546,0.452 l 1.541,0.682 c 0.104,0 0.236,-0.02 0.34,-0.046 0.216,1.474 2.018,1.965 3.838,2.24 -0.484,1.213 -0.701,3.204 0.892,6.001 0,0.019 -0.052,0.019 -0.052,0.019 v 0 c -0.367,0.42 -0.511,1.003 -0.367,1.612 0.301,1.225 1.605,2.541 3.178,3.19 1.958,0.753 3.897,0.845 5.509,0.308 l 0.34,0.072 0.184,-0.23 c 0.065,-0.026 0.118,-0.065 0.183,-0.078 0.119,1.126 0.668,1.978 1.239,2.515 -0.414,0.341 -0.715,0.773 -0.897,1.219 -0.524,-0.21 -1.186,-0.354 -1.958,-0.171 -1.383,-1.821 -3.119,-1.284 -3.977,-0.95 -0.445,-0.976 -1.336,-2.613 -2.567,-3.158 l -1.825,-0.006 c -0.275,0.111 -0.511,0.249 -0.74,0.393 -0.754,-1.572 -1.867,-2.621 -3.177,-2.961 -0.104,-0.019 -0.21,-0.019 -0.354,-0.052 0.111,-0.472 0.158,-0.989 0,-1.533 -0.229,-0.982 -1.362,-1.054 -2.333,-1.127 -1.873,-0.118 -2.489,-0.334 -2.489,-1.427 l 0.34,-0.957 0.472,-1.585 -0.95,-1.604 c -1.158,-1.344 -1.564,-2.104 -0.916,-2.818 z m -0.989,8.044 c 0,0 -0.026,-0.15 -0.026,-0.203 0,0 0,0.026 0.026,0.203 z m -15.813,-0.675 c 0.145,-0.327 0.727,-0.615 1.153,-0.799 l 1.009,-0.655 c 0.387,-0.466 0.288,-1.022 0.105,-1.847 -0.374,-1.94 -0.407,-3.145 0.589,-3.55 0.478,-0.21 0.911,0.196 1.65,1.14 l 1.336,1.126 c 0.996,0.249 1.526,-0.753 1.899,-1.5 0.171,-0.301 0.511,-0.944 0.695,-1.041 0.694,0.039 1.048,2.259 1.179,3.223 0.177,1.192 0.301,1.899 1.002,2.108 0.911,0.301 1.527,-0.458 1.894,-0.891 0.308,-0.34 0.498,-0.55 0.603,-0.511 0.615,0.21 0.721,1.821 0.786,2.792 0.072,1.093 0.131,1.886 0.682,2.286 0.314,0.269 1.126,0.694 2.331,-0.164 0.944,0.917 2.451,1.008 3.334,1.075 0,0 0.518,0.065 0.767,0.071 0,0.033 0.013,0.059 0.013,0.085 0,0.42 -0.158,0.872 -0.275,1.101 -3.092,-1.067 -5.477,-0.53 -6.642,-0.249 l -0.498,0.098 -0.636,0.026 -1.814,0.688 c -0.039,0.041 -0.046,0.105 -0.065,0.164 -0.892,-0.641 -2.044,-1.617 -2.935,-2.718 -1.403,-1.808 -2.07,-3.884 -2.607,-3.694 -1.074,0.406 0.288,3.243 1.061,4.31 1.087,1.552 3.21,3.479 4.5,4.258 l 0.02,0.072 c -0.013,0.714 0.104,1.533 0.307,2.325 -1.106,0.42 -1.44,1.546 -1.591,2.116 0,0 -0.026,0.04 -0.026,0.105 -0.158,0.052 -0.407,0.085 -0.407,0.085 -0.032,0 -0.065,0 -0.104,0.026 -0.236,-0.328 -0.446,-1.193 -0.511,-1.599 -0.21,-0.877 -0.387,-1.65 -0.93,-2.07 -0.773,-0.57 -1.756,-0.189 -2.699,0.164 0,0 -0.892,0.256 -1.009,0.308 -0.209,-0.236 -0.524,-0.407 -0.524,-0.563 0,-0.033 0.032,-0.079 0.078,-0.131 -0.418,-0.589 -1.218,-1.572 -1.218,-1.572 -0.027,-0.039 -0.053,-0.045 -0.066,-0.058 0.419,-0.4 1.284,-0.95 1.637,-0.964 0.368,-0.039 0.878,-0.301 0.944,-0.675 0.197,-0.753 -0.38,-1.021 -1.061,-1.342 -3.615,-1.672 -4.114,-2.634 -3.956,-3.159 z m -0.806,16.77 c -1.251,0.517 -1.807,0.649 -2.108,0.301 l -0.204,-0.55 c 0.059,-0.524 0.708,-1.074 0.905,-1.231 0.314,-0.222 0.445,-0.563 0.353,-0.924 -0.065,-0.354 -0.379,-0.622 -0.721,-0.675 -0.838,-0.117 -3.0520002,-0.707 -3.6880002,-1.918 -0.249,-0.479 -0.216,-1.048 0.111,-1.723 0.485,-1.022 1.1790002,-1.022 2.4440002,-0.656 l 1.238,0.033 c 0.615,-0.361 0.55,-1.015 0.485,-1.54 -0.119,-0.982 -0.04,-1.336 0.307,-1.46 0.905,-0.334 2.168,0.288 2.981,1.054 l 1.323,1.71 0.524,0.727 c 0.72,0.603 1.716,0.223 2.646,-0.111 0,0 1.048,-0.307 1.126,-0.34 -0.013,0.02 -0.039,0.033 -0.039,0.059 0,0.262 0.183,0.943 0.183,0.943 0.132,0.55 0.289,1.146 0.511,1.658 -0.805,0.366 -1.585,1.015 -1.887,2.182 -0.052,0.275 -0.078,0.55 -0.078,0.799 0,1.762 1.546,2.764 2.267,3.223 0,0 0.097,0.052 0.183,0.13 0.026,0.145 0.066,0.327 0.066,0.498 0,0.104 -0.014,0.217 -0.04,0.282 -0.393,0.255 -0.688,0.478 -0.917,0.662 -0.727,0.065 -2.188,0.026 -3.013,1.401 -0.033,0.013 -0.033,0.052 -0.053,0.078 -0.333,-0.405 -0.759,-0.799 -1.205,-1.126 0.668,-0.877 1.428,-2.162 0.628,-3.184 -1.202,-1.579 -3.011,-0.859 -4.328,-0.302 z m -2.469,13.428 -1.271,0.576 c -1.1400002,0.773 -2.0370002,1.245 -3.0790002,0.321 -0.32,-0.281 -0.406,-0.42 0.315,-1.35 0.328,-0.426 0.878,-1.126 0.341,-1.801 l -1.284,-0.616 c -1.959,-0.51 -3.013,-1.06 -2.79,-2.331 0.117,-0.59 0.327,-0.76 0.432,-0.786 0.458,-0.314 1.494,-0.105 2.228,0.052 l 1.801,0.052 c 0.825,-0.452 0.655,-1.389 0.544,-2.063 -0.23,-1.303 -0.08,-1.349 0.281,-1.401 1.0020002,-0.217 2.3380002,0.93 3.1510002,1.617 0.682,0.57 1.087,0.918 1.657,0.845 0.714,-0.15 0.872,-0.845 0.95,-1.271 0.171,-0.662 0.295,-0.851 0.649,-0.923 0.662,-0.118 2.135,1.16 3.308,2.849 0,0.02 0.052,0.033 0.059,0.066 0.058,0.137 0.138,0.281 0.15,0.373 0.085,0.157 0.301,0.931 0.301,0.931 l 0.543,1.415 c -0.766,-0.235 -1.604,-0.471 -2.404,-0.589 -1.808,-0.275 -7.245,-0.026 -7.265,0.747 -0.019,0.641 4.815,0.654 6.341,0.877 0.386,0.065 0.753,0.118 1.12,0.189 -0.668,0.479 -0.813,1.303 -0.813,2.128 0,0.249 0.014,0.486 0.033,0.735 0,0 -0.019,0.223 -0.019,0.464 -0.08,-0.084 -0.197,-0.136 -0.197,-0.136 -1.009,-0.689 -2.646,-1.763 -4.297,-0.904 -0.201,-0.04 -0.444,-0.092 -0.785,-0.066 z m 1.959,9.616 c 0.058,0 0.189,0 0.189,0 -0.131,0 -0.17,0 -0.189,0 z m 8.666,-1.106 c -0.209,0.269 -0.315,0.53 -0.419,0.785 l -0.262,-0.163 c -0.236,-0.165 -0.34,-0.478 -0.602,-0.381 l -1.193,0.623 c -0.838,0.663 -3.033,2.484 -4.048,1.526 -0.328,-0.301 -0.393,-0.667 -0.459,-1.277 l -0.524,-1.394 -1.703,-0.355 c -1.578,0.078 -2.371,-0.046 -2.711,-1.014 -0.065,-0.229 -0.171,-0.544 -0.06,-0.773 0.203,-0.347 0.963,-0.57 1.513,-0.727 l 1.494,-0.825 0.079,-1.966 -0.13,-0.982 c 0.583,-0.361 1.447,0.151 2.489,0.852 0.773,0.51 1.611,1.06 2.332,0.51 0.708,-0.492 0.667,-1.454 0.628,-2.397 -0.006,-0.425 -0.052,-1.179 0.08,-1.375 0.589,-0.373 1.965,-0.596 2.764,0.032 0.026,0.026 0.052,0.026 0.144,0.026 0.721,0.708 1.494,1.245 2.044,1.54 -0.314,0.892 0.039,2.116 0.983,3.014 0.281,0.301 0.818,0.701 1.539,0.956 -0.465,0.354 -0.812,0.727 -0.845,1.205 -0.013,0.061 -0.013,0.133 -0.013,0.203 0,0.257 0.137,0.479 0.236,0.708 -1.017,-0.022 -2.307,0.213 -3.356,1.649 z m 14.071,4.853 c -0.045,-0.052 -0.079,-0.125 -0.079,-0.125 -0.229,-0.492 -0.485,-1.06 -1.126,-1.219 -0.262,-0.084 -0.662,-0.084 -1.094,0.275 -0.74,0.564 -1.081,1.456 -1.422,2.406 -0.517,1.421 -1.022,2.763 -2.862,3.143 -0.727,0.159 -0.74,0.118 -0.911,-0.556 -0.15,-0.51 -0.446,-1.703 -1.781,-1.604 l -2.018,0.779 c -0.74,0.374 -2.732,1.312 -3.158,1.054 -0.773,-1.112 -0.039,-2.148 1.435,-3.55 l 0.766,-0.846 c 0.433,-0.753 -0.091,-1.407 -0.366,-1.761 -0.459,-0.538 -0.721,-0.877 -0.039,-1.835 0.773,-1.028 1.723,-0.982 2.764,-0.799 0.563,0.066 1.146,0.165 1.585,-0.313 0.17,-0.211 0.269,-0.419 0.269,-0.628 0,-0.524 -0.505,-0.996 -0.708,-1.167 0,0 -0.36,-0.4 -0.413,-0.484 0.065,0 0.314,-0.159 0.314,-0.159 1.401,-0.759 3.446,0.379 4.225,0.793 0.38,0.217 0.675,0.379 1.107,0.223 0.216,-0.093 0.446,-0.308 0.524,-0.557 0.177,-0.472 -0.052,-0.851 -0.327,-1.337 l -0.446,-1.034 c 0.288,-0.335 0.754,-0.368 1.061,-0.335 0.4,0.06 0.767,0.06 1.075,0.06 -0.21,0.406 -0.472,0.837 -0.472,1.283 0,0.229 0.066,0.46 0.171,0.669 0.301,0.536 0.773,0.903 1.349,1.192 -2.195,0.649 -3.374,1.506 -4.992,2.737 -0.956,0.689 -2.875,2.392 -2.79,2.843 0.091,0.472 5.561,-2.712 7.854,-3.622 0.675,-0.295 1.906,-0.597 2.902,-0.819 -0.065,0.092 -0.118,0.165 -0.144,0.263 -0.655,2.326 -1.572,4.344 -2.253,5.03 z m -0.341,-8.443 c 0.144,-0.02 0.472,-0.57 0.472,-0.57 l 0.55,-1.44 c -0.145,-0.833 -0.963,-0.839 -1.756,-0.839 -0.413,0 -0.838,-0.026 -1.257,-0.052 0,-0.02 0,-0.02 0,-0.02 -0.066,0 -0.119,0 -0.184,0 -1.277,-0.15 -2.444,-0.504 -2.856,-1.697 0,0.249 0.57,-0.365 0.57,-0.365 0.446,-0.394 1.225,-1.161 0.596,-1.914 l -1.33,-0.531 c -1.591,-0.189 -2.103,-0.504 -2.103,-1.277 0,-0.131 0.387,-0.34 0.662,-0.472 0.452,-0.236 1.126,-0.602 1.126,-1.362 l -0.858,-1.264 c -1.087,-0.996 -1.467,-1.579 -0.93,-2.587 0.249,-0.381 0.497,-0.485 0.655,-0.524 0.884,-0.189 2.24,0.799 2.745,1.153 l 0.517,0.288 c 0.911,0.368 1.356,-0.589 1.572,-1.035 0,0 0.158,-0.32 0.314,-0.504 1.709,0.556 2.129,2.115 2.202,3.033 0.039,0.432 0.359,0.773 0.799,0.831 0.405,0.033 0.799,-0.242 0.917,-0.636 0.197,-0.674 0.603,-1.415 0.833,-1.539 0.504,0.459 1.723,2.522 1.617,5.025 -0.039,0.392 0.223,0.746 0.629,0.87 0.393,0.125 0.812,-0.058 1.015,-0.413 0.19,-0.354 0.53,-0.714 0.701,-0.759 0.314,0.222 1.121,1.578 1.258,5.134 l -0.066,0.472 c -0.301,0.171 -1.82,-0.365 -3.209,-1.309 -0.027,-0.026 -0.053,-0.026 -0.072,-0.026 -0.072,-0.041 -0.15,-0.099 -0.23,-0.145 -0.942,-0.59 -2.089,-1.389 -3.223,-2.221 0,0 -2.81,-2.063 -3.203,-1.435 -0.399,0.615 2.273,2.909 2.273,2.909 1.126,0.865 2.273,1.65 3.223,2.241 0.099,0.058 0.177,0.104 0.249,0.177 1.042,0.988 1.9,2.123 1.991,2.626 -3.274,1.08 -5.573,1.167 -6.209,0.177 z m -2.902,40.587002 0.098,0.177 c -0.079,-0.058 -0.111,-0.119 -0.151,-0.157 0.007,-0.014 0.04,-0.014 0.053,-0.02 z m 1.329,7.991 c -1.847,0 -2.935,-0.785 -2.947,-0.785 -0.367,-0.275 -0.885,-0.205 -1.205,0.137 -0.027,0.026 -0.682,0.753 -2.594,0.753 -1.874,0 -3.223,-0.641 -4.167,-2.018 -0.576,-0.771 -0.858,-2.855 -0.026,-4.401 0.708,-1.37 2.109,-2.056 4.107,-2.05 1.579,0.02 3.715,0.747 4.619,2.012 l 3.721,5.443 c 0.197,0.221 0.472,0.346 0.642,0.55 -0.445,0.183 -1.12,0.359 -2.15,0.359 z m 25.875,0 c -1.664,0 -2.607,-0.721 -2.673,-0.773 -0.366,-0.301 -0.917,-0.223 -1.231,0.15 -0.026,0.02 -0.622,0.727 -2.318,0.727 -1.5,0 -2.974,-0.793 -3.865,-2.018 l -3.747,-5.476 c -0.17,-0.243 -0.374,-0.374 -0.55,-0.603 0.42,-0.125 0.983,-0.281 1.801,-0.281 1.67,0 2.646,0.765 2.692,0.805 0.354,0.29 0.943,0.177 1.245,-0.176 0.013,-0.026 0.616,-0.721 2.318,-0.721 1.481,0 2.948,0.747 3.826,2.012 l 3.734,5.443 c 0.169,0.215 0.393,0.412 0.589,0.641 -0.419,0.134 -0.995,0.27 -1.821,0.27 z m -7.886,-9.891 c -0.695,0.15 -1.206,0.399 -1.54,0.648 -0.629,-0.347 -1.657,-0.799 -3.158,-0.799 -0.071,0 -0.15,0 -0.242,0.026 1.638,-0.944 3.786,-0.866 4.899,-0.747 10e-4,0.308 10e-4,0.571 0.041,0.872 z m 6.353,1.888 0.171,0.275 c -0.104,-0.072 -0.171,-0.191 -0.249,-0.263 0.039,-0.012 0.059,-0.012 0.078,-0.012 z m 4.888,-1.239 c -0.617,-0.347 -1.665,-0.799 -3.145,-0.799 -0.407,0 -0.767,0.052 -1.048,0.084 0.478,-0.962 1.297,-2.03 2.496,-2.03 0.511,0 0.911,0.157 1.225,0.458 0.543,0.564 0.747,1.456 0.786,2.09 -0.106,0.06 -0.216,0.125 -0.314,0.197 z m 22.245,9.242 c -1.664,0 -2.667,-0.741 -2.686,-0.773 -0.368,-0.301 -0.931,-0.223 -1.232,0.15 -0.04,0.02 -0.642,0.727 -2.325,0.727 -1.5,0 -2.968,-0.793 -3.858,-2.018 l -3.767,-5.476 c -0.125,-0.229 -0.346,-0.368 -0.517,-0.583 0.446,-0.139 1.061,-0.301 1.952,-0.301 1.678,0 2.641,0.765 2.673,0.805 0.38,0.29 0.931,0.177 1.232,-0.176 0.026,-0.026 0.623,-0.721 2.332,-0.721 1.48,0 2.961,0.747 3.858,2.012 -0.02,-0.041 3.753,5.47 3.753,5.47 0.131,0.195 0.38,0.374 0.55,0.562 -0.419,0.16 -1.062,0.322 -1.965,0.322 z m -15.656,-41.000002 c -4.631,7.076 -2.344,17.883 -1.212,19.843 l 0.132,0.243 c 1.119,1.958 2.639,4.677002 8.928,7.317002 l 0.733,0.308 c 4.141,1.755 5.7,2.423 6.538,3.333 -1.219,0.145 -2.018,0.512 -2.476,0.773 -0.97,-0.556 -2.07,-0.95 -3.184,-0.95 -0.668,0 -1.232,0.092 -1.704,0.249 -0.216,-0.498 -0.406,-0.962 -0.432,-1.06 -1.009,-1.966 -2.778,-2.713 -4.52,-3.44 -2.201,-0.956 -4.533,-1.919 -5.988,-5.620002 -0.753,-1.952 -1.067,-4.566 -1.231,-6.964 -0.085,-1.723 -0.643,-7.192 -1.074,-7.152 -0.459,0 -0.799,5.528 -0.668,7.277 0.145,2.53 0.498,5.333 1.336,7.474 1.69,4.397002 4.625,5.622002 6.957,6.590002 1.756,0.761 3.144,1.337 3.76,3.04 l 0.066,0.301 c -0.63,-0.301 -1.546,-0.603 -2.739,-0.603 -1.781,0 -2.868,0.51 -3.418,0.857 -1.016,-0.576 -2.148,-0.95 -3.276,-0.95 -0.406,0 -0.773,0.046 -1.093,0.092 -0.138,-0.805 -0.44,-1.899 -1.225,-2.692 -0.643,-0.681 -1.5,-1.014 -2.496,-1.014 -1.998,0 -3.682,1.564 -4.631,4.271 0,0.044 0,0.123 0,0.189 -0.065,0.006 -0.132,0.046 -0.171,0.078 -0.917,-0.55 -1.945,-0.837 -3,-0.877 -0.039,-0.359 -0.039,-0.727 -0.026,-1.159 0.026,-0.008 0.026,-0.02 0.052,-0.078 0.026,-0.099 0.026,-0.211 0,-0.348 0.078,-0.648 0.229,-1.349 0.557,-1.98 0.262,-0.55 0.648,-1.165 1.054,-1.853 2.057,-3.544002 2.168,-6.897002 1.709,-6.903002 -0.491,0 -2.115,4.094 -3.243,6.032002 -0.393,0.668 -0.799,1.331 -1.101,1.919 -0.314,0.629 -0.498,1.285 -0.642,1.94 -1.925,-0.217 -6.236,-0.321 -8.077,3.15 -0.013,0.026 -0.026,0.079 -0.033,0.125 -0.012,0 -0.026,0.02 -0.039,0.02 -0.969,-0.576 -2.069,-0.912 -3.17,-0.912 -1.598,0 -2.542,0.492 -3.118,0.892 -0.059,-0.046 -0.171,-0.112 -0.249,-0.137 2.293,-1.58 6.026,-3.459 8.633,-4.769 l 1.402,-0.695 c 3.917,-2.012 6.524,-6.145002 7.31,-11.660002 0.06,-0.486 -0.033,-0.701 -2.987,-5.444 -1.317,-2.148 -2.988,-4.809 -3.289,-5.516 -0.569,-1.454 -4.245,-7.381 -8.587,-8.942 0.812,-0.163 1.689,-0.412 2.652,-0.747 0.563,-0.197 0.931,-0.597 1.068,-1.121 0,-0.104 0.006,-0.195 0.006,-0.307 0,-0.432 -0.184,-0.918 -0.458,-1.396 0.616,0.098 1.213,0.185 1.704,-0.064 0.459,-0.269 0.995,-0.825 0.943,-2.084 -0.039,-0.826 -0.13,-1.755 -0.249,-2.647 0.014,0 0.046,0.014 0.066,0.014 0.471,0.065 2.398,1.526 2.253,6.872 -0.21,7.905 7.952,13.435 8.502,13.586 0.275,0.084 0.747,-0.073 0.976,-0.281 0.609,-0.564 0.832,-1.874 0.832,-3.552 0,-1.99 -0.334,-4.479 -0.721,-6.66 -1.401,-7.96 -6.105,-9.323 -7.834,-9.827 0,0 -0.472,-0.137 -0.472,-0.151 0.727,-0.576 1.625,-1.427 2.123,-2.469 0.079,0.06 0.157,0.151 0.281,0.203 1.35,0.615 2.955,0 4.146,-0.485 v 0.15 c -0.032,1.559 -0.091,4.827 2.083,8.443 l 2.503,4.179 1.296,2.148 c 0.204,0.368 0.609,0.492 0.983,0.388 1.382,-0.388 2.489,-7.972 2.489,-8.05 0.007,-0.354 0.026,-0.773 0.026,-1.239 0,-1.775 -0.328,-4.186 -1.153,-6.373 0.013,0 0.02,0 0.066,0 0.078,0.13 0.216,0.216 0.393,0.275 0.485,0.144 0.957,-0.131 1.074,-0.602 0.433,-1.494 0.734,-2.647 0.897,-3.558 0.039,0.236 0.045,0.511 0.072,0.714 l 0.34,1.84 c 0.511,0.636 1.134,0.361 2.738,-0.425 0.537,-0.275 1.232,-0.589 1.939,-0.93 -1.034,1.427 -1.991,3.131 -2.777,5.233 -0.766,2.064 -0.877,4.462 -0.97,6.544 -0.084,1.52 -0.13,2.942 -0.471,3.733 -0.027,0.119 -0.027,0.231 -0.027,0.33 0,0.333 0.145,0.622 0.446,0.771 0.38,0.223 0.872,0.118 1.153,-0.255 0.931,-1.329 3.145,-4.12 5.188,-6.19 -0.42,0.906 -0.773,1.783 -0.864,2.261 -0.007,0.058 -0.007,0.084 -0.007,0.15 0,0.269 0.138,0.564 0.374,0.721 0.275,0.183 0.655,0.223 0.944,0.064 0.071,-0.058 1.336,-0.693 3.432,-0.516 v 0 c 0,0 0,0.064 0,0.084 -1.738,0.639 -5.275,2.368 -8.053,6.631 z m 5.607,-8.265 c 0.433,-0.964 0.983,-2.156 1.48,-3.21 0.289,-0.446 0.852,-0.839 1.887,-1.33 0.301,-0.145 2.607,-1.52 2.273,-2.103 -0.334,-0.589 -2.68,0.354 -3.066,0.511 -1.133,0.563 -2.45,1.355 -2.562,1.448 -0.779,0.492 -1.65,1.225 -2.515,2.064 -0.216,-0.604 -0.354,-1.456 0.184,-2.157 l 0.956,-0.647 c 0.793,-0.368 1.533,-0.838 1.717,-2.096 1.191,0.157 2.213,0.209 2.619,0 0.773,-0.393 0.931,-1.18 1.009,-1.664 0.099,0.039 0.21,0.078 0.21,0.078 1.389,0.379 3.944,1.054 5.856,-0.655 0.379,-0.328 0.563,-0.702 0.563,-1.127 0,-0.183 -0.184,-0.366 -0.236,-0.55 0.459,0.046 1.022,0.118 1.599,0.079 0.039,0.117 0.052,0.249 0.052,0.432 0,0.046 0,0.104 0,0.15 -0.013,0.348 -0.418,0.662 -0.93,1.016 l -1.022,1.074 c -0.052,0.157 -0.078,0.328 -0.078,0.478 0,0.504 0.327,0.845 0.55,1.106 0.223,0.249 0.405,0.459 0.405,0.858 0,0.033 0,0.099 0,0.164 -0.117,1.022 -1.191,1.337 -3.117,1.546 l -1.795,0.57 c -0.236,0.255 -0.309,0.504 -0.309,0.739 0,0.526 0.413,0.99 0.609,1.219 l 0.367,0.532 c -0.013,-0.034 -0.262,0.275 -0.262,0.275 -0.354,0.267 -1.794,0.542 -2.469,0.661 l -1.238,0.368 c -1.086,-0.106 -2.023,0.006 -2.737,0.171 z m 21.591,11.325 c -0.445,0.688 -1.087,0.608 -2.227,0.249 l -0.786,-0.203 c -0.589,0 -0.944,0.432 -1.193,0.747 -0.314,0.339 -0.563,0.695 -1.166,0.695 -0.695,0.026 -1.598,-0.906 -2.123,-1.468 l -1.179,-0.852 c -0.773,-0.118 -1.101,0.576 -1.245,0.832 -0.197,0.385 -0.314,0.634 -1.087,0.538 -0.877,-0.119 -1.743,-2.235 -2.188,-3.269 -0.42,-1.074 -0.649,-1.572 -1.193,-1.795 -0.74,-0.29 -1.284,0.301 -1.454,0.51 -0.669,-0.701 -1.219,-3.223 -1.468,-5.194 1.323,0.492 3.315,1.331 4.494,2.183 0.97,0.719 2.791,2.212 3.288,1.807 0.498,-0.42 -1.14,-2.424 -2.24,-3.243 -1.191,-0.845 -2.364,-1.552 -3.485,-2.102 3.341,-1.265 5.555,-0.99 5.896,-0.759 -0.013,0.006 -0.091,0.359 -0.091,0.359 l -0.119,0.898 c 0.119,0.903 0.97,0.976 2.804,1.192 0.838,0.084 2.581,0.301 2.922,0.577 0.013,0 0.039,0 0.039,0 0,0.09 -0.091,0.301 -0.275,0.64 -0.145,0.301 -0.314,0.669 -0.314,1.048 0,0.132 0.026,0.315 0.078,0.454 0.236,0.595 0.917,0.785 1.9,1.066 0.537,0.171 1.585,0.446 1.808,0.701 -0.052,0.026 -0.275,0.263 -0.275,0.263 -0.288,0.295 -0.708,0.713 -0.708,1.297 0,0.099 0,0.183 0.026,0.281 l 0.905,1.106 c 0.615,0.486 0.851,0.741 0.851,0.976 10e-4,0.159 -0.078,0.275 -0.195,0.466 z m -2.883,-7.121 c 0.171,0.073 0.197,0.059 0.197,0.059 0,0 0,0.014 0,0.02 -0.052,-0.02 -0.197,-0.079 -0.197,-0.079 z m 8.490002,-1.54 c -0.17,0.362 -0.485,0.44 -1.52,0.295 l -1.584,0.275 -0.485002,1.257 c -0.053,0.407 -0.079,0.472 -0.223,0.558 -0.381,0.229 -0.97,0.136 -1.638,0.032 l -0.655,-0.066 c -0.471,-0.195 -0.93,-0.339 -1.415,-0.498 0,0 -0.275,-0.07 -0.55,-0.157 0.156,-0.353 0.405,-0.811 0.405,-1.335 0,-0.362 -0.104,-0.753 -0.405,-1.126 -0.577,-0.741 -1.913,-0.944 -4.101,-1.193 0,0 -0.668,-0.104 -1.153,-0.197 0.052,-0.157 0.079,-0.333 0.079,-0.55 0,-0.484 -0.131,-0.956 -0.643,-1.349 -0.747,-0.617 -2.633,-0.767 -4.978,-0.275 -0.125,-0.269 -0.348,-0.761 -0.498,-1.062 0.13,-0.012 0.222,-0.052 0.222,-0.052 0.97,-0.117 2.555,-0.307 3.617,-1.153 2.699,1.534 5.987,1.364 7.611,0.669 0.158,-0.052 0.263,-0.145 0.354,-0.197 0.275,0.374 0.616,0.761 1.101,0.917 l 2.017,-0.104 c 0.616,-0.132 1.834002,-0.381 2.148002,-0.159 0.734,0.59 0.656,0.787 0.394,1.332 l -0.236,1.5 c 0.17,0.536 0.615,0.727 1.1,0.93 1.155,0.498 1.43,0.785 1.036,1.708 z m 2.594,-2.18 c 0,0 0.236,0.119 0.419,0.203 -0.143,0.02 -0.248,-0.105 -0.419,-0.203 z m 6.106,-2.175 h -0.013 c 0.013,-0.086 0.013,-0.197 0.013,-0.197 0,0.066 0,0.11 0,0.13 0,0.035 0,0.067 0,0.067 z m 3.301,-2.562 c -0.078,0.532 -0.249,0.886 -0.524,1.042 -0.615,0.446 -1.782,0.208 -2.489,0.084 l -1.481,0.041 c -0.485,0.347 -0.537,0.883 -0.615,1.488 -0.079,0.707 -0.145,1.283 -0.485,1.446 -0.446,0.217 -1.874,-0.426 -2.463,-0.687 -0.825,-0.359 -1.442,-0.634 -1.926,-0.125 l -0.38,0.819 c -0.065,0.328 -0.157,0.536 -0.249,0.655 -0.524,-0.655 -1.31,-0.996 -1.716,-1.167 0.026,-0.032 0.039,-0.084 0.039,-0.084 0.145,-0.301 0.354,-0.733 0.354,-1.317 0,-0.588 -0.288,-1.349 -1.244,-2.123 -0.957,-0.747 -2.411002,-0.446 -3.603002,-0.197 l -1.126,0.185 c -0.091,-0.04 -0.393,-0.518 -0.55,-0.944 0.446,-0.119 0.851,-0.236 1.258,-0.368 0.367,-0.032 0.72,-0.097 1.126,-0.117 1.599002,-0.085 7.704002,0.957 7.730002,0.15 0.013,-0.635 -3.63,-1.349 -6.092,-1.578 1.349,-1.16 1.795,-2.477 1.991,-3.17 0,0 0.092,-0.243 0.092,-0.269 0,0.026 0.183,-0.104 0.288,-0.164 0.21,0.119 0.367,0.394 0.511,0.976 0.144,0.44 0.236,0.911 0.76,1.133 0.497,0.21 0.878,-0.026 1.625,-0.524 0.995,-0.609 3.288,-2.05 4.14,-1.192 0.643,0.681 0.446,1.114 0.249,1.631 -0.327,0.806 -0.197,1.369 0.394,1.65 l 0.864,0.204 c 2.735,0.427 3.706,1.121 3.522,2.522 z" />
  </g>
</svg>
